<?xml version="1.0" encoding="UTF-8"?>
<!DOCTYPE svg PUBLIC "-//W3C//DTD SVG 1.1//EN" "http://www.w3.org/Graphics/SVG/1.1/DTD/svg11.dtd">
<svg xmlns="http://www.w3.org/2000/svg" version="1.1" width="400px" height="400px" style="shape-rendering:geometricPrecision; text-rendering:geometricPrecision; image-rendering:optimizeQuality; fill-rule:evenodd; clip-rule:evenodd" xmlns:xlink="http://www.w3.org/1999/xlink">
<g><path style="opacity:1" fill="#1651ef" d="M -0.5,-0.5 C 132.833,-0.5 266.167,-0.5 399.5,-0.5C 399.5,132.833 399.5,266.167 399.5,399.5C 266.167,399.5 132.833,399.5 -0.5,399.5C -0.5,266.167 -0.5,132.833 -0.5,-0.5 Z"/></g>
<g><path style="opacity:1" fill="#1f54db" d="M 298.5,67.5 C 287.784,69.9606 277.118,72.6272 266.5,75.5C 266.804,74.8501 267.137,74.1835 267.5,73.5C 264.268,72.0512 260.935,70.8845 257.5,70C 258.459,68.5362 259.792,67.7028 261.5,67.5C 265.01,69.8392 268.843,71.5059 273,72.5C 275.978,71.0892 279.145,70.0892 282.5,69.5C 280.067,67.9462 277.4,67.2796 274.5,67.5C 274.5,66.5 274.5,65.5 274.5,64.5C 277.432,64.2843 280.098,64.951 282.5,66.5C 285.167,65.8333 287.833,65.1667 290.5,64.5C 293.211,65.7322 295.877,66.7322 298.5,67.5 Z"/></g>
<g><path style="opacity:1" fill="#2255c4" d="M 298.5,67.5 C 300.167,67.5 301.833,67.5 303.5,67.5C 303.5,68.5 303.5,69.5 303.5,70.5C 302.5,70.5 301.5,70.5 300.5,70.5C 300.358,157.443 300.524,244.443 301,331.5C 301.75,332.126 302.584,332.626 303.5,333C 298.505,335.241 293.838,334.741 289.5,331.5C 292.238,331.851 294.904,332.518 297.5,333.5C 298.5,244.836 298.833,156.169 298.5,67.5 Z"/></g>
<g><path style="opacity:1" fill="#1f52de" d="M 241.5,82.5 C 232.355,85.4565 223.021,88.1231 213.5,90.5C 214.974,89.3249 216.64,88.3249 218.5,87.5C 217.667,87.1667 216.833,86.8333 216,86.5C 213.269,87.6166 210.435,88.2833 207.5,88.5C 207.5,87.5 207.5,86.5 207.5,85.5C 215.196,84.3528 222.863,83.0195 230.5,81.5C 234.145,82.1162 237.812,82.4495 241.5,82.5 Z"/></g>
<g><path style="opacity:1" fill="#2554d7" d="M 212.5,90.5 C 203.445,93.7674 194.111,96.4341 184.5,98.5C 186.845,95.925 189.845,94.925 193.5,95.5C 193.33,94.1779 193.663,93.0113 194.5,92C 193.552,91.5172 192.552,91.3505 191.5,91.5C 191.5,90.5 191.5,89.5 191.5,88.5C 194.32,88.2475 196.986,88.7475 199.5,90C 198.833,90.3333 198.167,90.6667 197.5,91C 200.5,91.6667 203.5,91.6667 206.5,91C 204.405,90.4444 204.238,89.9444 206,89.5C 208.099,90.2865 210.266,90.6199 212.5,90.5 Z"/></g>
<g><path style="opacity:1" fill="#1d54df" d="M 184.5,98.5 C 158.768,106.405 132.768,113.739 106.5,120.5C 106.5,119.5 106.5,118.5 106.5,117.5C 102.932,117.083 99.4322,116.416 96,115.5C 90.3483,117.149 84.8483,116.816 79.5,114.5C 87.4544,113.273 95.4544,112.606 103.5,112.5C 103.5,113.5 103.5,114.5 103.5,115.5C 106.127,116.092 108.794,116.425 111.5,116.5C 111.5,115.5 111.5,114.5 111.5,113.5C 118.744,112.102 124.077,111.436 127.5,111.5C 127.974,107.843 129.307,107.676 131.5,111C 133.473,111.495 135.473,111.662 137.5,111.5C 137.5,109.833 137.5,108.167 137.5,106.5C 140.079,106.917 142.246,106.25 144,104.5C 150.496,107.379 156.663,106.879 162.5,103C 161.833,102.667 161.167,102.333 160.5,102C 162.044,100.813 163.711,100.48 165.5,101C 163.065,102.003 163.398,102.503 166.5,102.5C 168.854,102.489 170.854,101.656 172.5,100C 171.672,99.0853 170.672,98.4186 169.5,98C 170.5,97.6667 171.5,97.3333 172.5,97C 176.508,97.1622 180.508,97.6622 184.5,98.5 Z"/></g>
<g><path style="opacity:1" fill="#fafcfa" d="M 298.5,67.5 C 298.833,156.169 298.5,244.836 297.5,333.5C 294.904,332.518 292.238,331.851 289.5,331.5C 268.712,325.131 247.712,319.131 226.5,313.5C 226.167,313.5 225.833,313.5 225.5,313.5C 210.377,308.797 195.044,304.464 179.5,300.5C 160.732,294.722 141.732,289.388 122.5,284.5C 109.732,280.388 96.732,276.722 83.5,273.5C 82.5051,224.905 82.1718,176.239 82.5,127.5C 90.6899,125.457 98.6899,123.123 106.5,120.5C 132.768,113.739 158.768,106.405 184.5,98.5C 194.111,96.4341 203.445,93.7674 212.5,90.5C 212.833,90.5 213.167,90.5 213.5,90.5C 223.021,88.1231 232.355,85.4565 241.5,82.5C 250.065,80.6118 258.398,78.2784 266.5,75.5C 277.118,72.6272 287.784,69.9606 298.5,67.5 Z"/></g>
<g><path style="opacity:1" fill="#1751ee" d="M 274.5,95.5 C 276.492,123.48 277.158,151.814 276.5,180.5C 271.271,179.056 265.938,178.056 260.5,177.5C 251.852,175.924 243.519,173.591 235.5,170.5C 233.594,169.518 231.594,168.518 229.5,167.5C 231.423,166.692 233.423,166.192 235.5,166C 235.167,165.667 234.833,165.333 234.5,165C 230.716,164.629 227.049,165.129 223.5,166.5C 223.5,165.5 223.5,164.5 223.5,163.5C 220.531,164.329 217.531,164.495 214.5,164C 216.246,163.529 217.913,162.862 219.5,162C 215.47,161.674 211.47,161.674 207.5,162C 202.682,159.191 197.849,156.358 193,153.5C 192.127,153.735 191.293,154.069 190.5,154.5C 187.745,151.933 184.912,151.933 182,154.5C 181.167,154.167 180.333,153.833 179.5,153.5C 183.62,150.758 183.286,150.091 178.5,151.5C 176.359,150.192 174.359,148.692 172.5,147C 170.236,146.764 168.069,146.264 166,145.5C 165.517,146.448 165.351,147.448 165.5,148.5C 167.604,148.201 169.604,148.534 171.5,149.5C 169.257,150.474 166.924,150.808 164.5,150.5C 164.167,150.5 163.833,150.5 163.5,150.5C 161.852,149.073 159.852,148.24 157.5,148C 159.246,147.529 160.913,146.862 162.5,146C 161.5,145.5 160.5,145 159.5,144.5C 156.183,146.784 152.85,146.951 149.5,145C 156.167,144.333 156.167,143.667 149.5,143C 152.619,141.595 155.952,141.095 159.5,141.5C 159.5,139.833 159.5,138.167 159.5,136.5C 154.22,137.522 148.887,138.355 143.5,139C 149.102,140.015 149.436,140.848 144.5,141.5C 141.042,142.226 139.375,140.893 139.5,137.5C 140.833,137.5 142.167,137.5 143.5,137.5C 143.5,136.5 143.5,135.5 143.5,134.5C 145.199,134.66 146.866,134.494 148.5,134C 148.043,133.586 147.709,133.086 147.5,132.5C 148.602,131.824 149.602,131.158 150.5,130.5C 191.563,118.231 232.896,106.565 274.5,95.5 Z"/></g>
<g><path style="opacity:1" fill="#2555b7" d="M 274.5,95.5 C 275.209,94.596 276.209,94.2627 277.5,94.5C 277.5,123.833 277.5,153.167 277.5,182.5C 271.561,181.406 265.894,179.739 260.5,177.5C 265.938,178.056 271.271,179.056 276.5,180.5C 277.158,151.814 276.492,123.48 274.5,95.5 Z"/></g>
<g><path style="opacity:1" fill="#2653bf" d="M 82.5,127.5 C 82.1718,176.239 82.5051,224.905 83.5,273.5C 82.0222,273.762 80.6888,273.429 79.5,272.5C 79.8268,223.864 80.8268,175.531 82.5,127.5 Z"/></g>
<g><path style="opacity:1" fill="#1f53df" d="M 150.5,130.5 C 149.602,131.158 148.602,131.824 147.5,132.5C 147.709,133.086 148.043,133.586 148.5,134C 146.866,134.494 145.199,134.66 143.5,134.5C 143.5,135.5 143.5,136.5 143.5,137.5C 142.167,137.5 140.833,137.5 139.5,137.5C 139.375,140.893 141.042,142.226 144.5,141.5C 149.436,140.848 149.102,140.015 143.5,139C 148.887,138.355 154.22,137.522 159.5,136.5C 159.5,138.167 159.5,139.833 159.5,141.5C 155.952,141.095 152.619,141.595 149.5,143C 156.167,143.667 156.167,144.333 149.5,145C 152.85,146.951 156.183,146.784 159.5,144.5C 160.5,145 161.5,145.5 162.5,146C 160.913,146.862 159.246,147.529 157.5,148C 159.852,148.24 161.852,149.073 163.5,150.5C 149.332,147.111 135.332,143.111 121.5,138.5C 130.96,135.052 140.627,132.385 150.5,130.5 Z"/></g>
<g><path style="opacity:1" fill="#1f54db" d="M 235.5,170.5 C 211.519,164.591 187.852,157.924 164.5,150.5C 166.924,150.808 169.257,150.474 171.5,149.5C 169.604,148.534 167.604,148.201 165.5,148.5C 165.351,147.448 165.517,146.448 166,145.5C 168.069,146.264 170.236,146.764 172.5,147C 174.359,148.692 176.359,150.192 178.5,151.5C 183.286,150.091 183.62,150.758 179.5,153.5C 180.333,153.833 181.167,154.167 182,154.5C 184.912,151.933 187.745,151.933 190.5,154.5C 191.293,154.069 192.127,153.735 193,153.5C 197.849,156.358 202.682,159.191 207.5,162C 211.47,161.674 215.47,161.674 219.5,162C 217.913,162.862 216.246,163.529 214.5,164C 217.531,164.495 220.531,164.329 223.5,163.5C 223.5,164.5 223.5,165.5 223.5,166.5C 227.049,165.129 230.716,164.629 234.5,165C 234.833,165.333 235.167,165.667 235.5,166C 233.423,166.192 231.423,166.692 229.5,167.5C 231.594,168.518 233.594,169.518 235.5,170.5 Z"/></g>
<g><path style="opacity:1" fill="#2853bc" d="M 106.5,156.5 C 104.508,185.147 103.841,214.147 104.5,243.5C 105.5,243.5 106.5,243.5 107.5,243.5C 106.432,244.434 105.099,244.768 103.5,244.5C 103.5,214.833 103.5,185.167 103.5,155.5C 104.791,155.263 105.791,155.596 106.5,156.5 Z"/></g>
<g><path style="opacity:1" fill="#1751ee" d="M 106.5,156.5 C 135.065,164.055 163.399,172.055 191.5,180.5C 191.201,182.604 191.534,184.604 192.5,186.5C 195.762,185.279 199.096,184.779 202.5,185C 201.833,185.667 201.167,186.333 200.5,187C 203.663,187.261 206.663,188.094 209.5,189.5C 210.833,188.833 212.167,188.167 213.5,187.5C 215.453,188.156 217.453,188.489 219.5,188.5C 218.319,190.067 216.653,190.901 214.5,191C 217.482,191.498 220.482,191.665 223.5,191.5C 223.703,193.638 224.703,195.305 226.5,196.5C 224.441,197.951 223.441,199.951 223.5,202.5C 224.675,202.281 225.675,202.614 226.5,203.5C 224.666,205.498 223.666,207.832 223.5,210.5C 220.451,209.899 217.451,209.399 214.5,209C 213.833,209.333 213.167,209.667 212.5,210C 217.625,211.149 217.458,212.315 212,213.5C 210.831,212.991 209.998,212.158 209.5,211C 206.139,210.946 203.139,209.946 200.5,208C 195.833,207.333 191.167,207.333 186.5,208C 191.373,209.393 196.373,210.56 201.5,211.5C 197.905,212.252 194.572,213.586 191.5,215.5C 186.208,216.495 180.875,216.828 175.5,216.5C 175.5,217.5 175.5,218.5 175.5,219.5C 178.627,219.124 181.627,219.124 184.5,219.5C 181.445,221.02 178.445,222.687 175.5,224.5C 173.401,225.612 171.067,226.279 168.5,226.5C 164.781,226.632 161.281,225.965 158,224.5C 155.521,225.245 153.021,225.911 150.5,226.5C 145.517,225.577 140.517,225.41 135.5,226C 133.998,226.583 132.665,227.416 131.5,228.5C 134.099,229.031 136.765,229.198 139.5,229C 138.241,229.923 136.908,230.757 135.5,231.5C 136.5,232.167 137.5,232.833 138.5,233.5C 137.833,233.833 137.167,234.167 136.5,234.5C 134.913,233.638 133.246,232.971 131.5,232.5C 128.686,233.768 125.686,234.601 122.5,235C 121.62,236.356 121.286,237.856 121.5,239.5C 117.105,241.435 112.438,242.769 107.5,243.5C 106.5,243.5 105.5,243.5 104.5,243.5C 103.841,214.147 104.508,185.147 106.5,156.5 Z"/></g>
<g><path style="opacity:1" fill="#1f54d6" d="M 191.5,180.5 C 201.111,182.566 210.445,185.233 219.5,188.5C 217.453,188.489 215.453,188.156 213.5,187.5C 212.167,188.167 210.833,188.833 209.5,189.5C 206.663,188.094 203.663,187.261 200.5,187C 201.167,186.333 201.833,185.667 202.5,185C 199.096,184.779 195.762,185.279 192.5,186.5C 191.534,184.604 191.201,182.604 191.5,180.5 Z"/></g>
<g><path style="opacity:1" fill="#2851bf" d="M 255.5,198.5 C 257.854,198.838 260.187,199.338 262.5,200C 254.959,202.635 247.293,204.802 239.5,206.5C 242.974,204.167 246.974,202.667 251.5,202C 253.319,201.26 254.652,200.093 255.5,198.5 Z"/></g>
<g><path style="opacity:1" fill="#1d53e3" d="M 219.5,188.5 C 231.769,191.231 243.769,194.565 255.5,198.5C 254.652,200.093 253.319,201.26 251.5,202C 246.974,202.667 242.974,204.167 239.5,206.5C 218.435,213.072 197.102,219.072 175.5,224.5C 178.445,222.687 181.445,221.02 184.5,219.5C 181.627,219.124 178.627,219.124 175.5,219.5C 175.5,218.5 175.5,217.5 175.5,216.5C 180.875,216.828 186.208,216.495 191.5,215.5C 194.572,213.586 197.905,212.252 201.5,211.5C 196.373,210.56 191.373,209.393 186.5,208C 191.167,207.333 195.833,207.333 200.5,208C 203.139,209.946 206.139,210.946 209.5,211C 209.998,212.158 210.831,212.991 212,213.5C 217.458,212.315 217.625,211.149 212.5,210C 213.167,209.667 213.833,209.333 214.5,209C 217.451,209.399 220.451,209.899 223.5,210.5C 223.666,207.832 224.666,205.498 226.5,203.5C 225.675,202.614 224.675,202.281 223.5,202.5C 223.441,199.951 224.441,197.951 226.5,196.5C 224.703,195.305 223.703,193.638 223.5,191.5C 220.482,191.665 217.482,191.498 214.5,191C 216.653,190.901 218.319,190.067 219.5,188.5 Z"/></g>
<g><path style="opacity:1" fill="#1954e6" d="M 272.5,219.5 C 273.434,220.568 273.768,221.901 273.5,223.5C 273.5,250.167 273.5,276.833 273.5,303.5C 272.167,303.5 270.833,303.5 269.5,303.5C 260.905,301.741 252.572,299.408 244.5,296.5C 249.126,296.654 253.293,295.321 257,292.5C 258.169,293.009 259.002,293.842 259.5,295C 263.583,295.53 267.583,296.363 271.5,297.5C 271.5,296.167 271.5,294.833 271.5,293.5C 256.852,291.492 256.852,290.159 271.5,289.5C 271.5,267.5 271.5,245.5 271.5,223.5C 266.689,221.876 264.689,221.876 265.5,223.5C 265.703,225.39 265.037,226.89 263.5,228C 260.139,228.337 256.806,228.837 253.5,229.5C 251.41,227.894 249.076,227.394 246.5,228C 245.007,229.156 245.174,229.99 247,230.5C 249.77,231.348 252.603,231.681 255.5,231.5C 255.5,232.5 255.5,233.5 255.5,234.5C 252.482,234.335 249.482,234.502 246.5,235C 243.972,236.017 243.972,237.184 246.5,238.5C 241.787,239.497 237.12,239.163 232.5,237.5C 234.51,236.935 236.176,235.935 237.5,234.5C 235.257,233.526 232.924,233.192 230.5,233.5C 230.5,234.5 230.5,235.5 230.5,236.5C 227.306,236.27 224.306,236.936 221.5,238.5C 218.765,236.875 215.765,236.208 212.5,236.5C 232.229,230.231 252.229,224.565 272.5,219.5 Z"/></g>
<g><path style="opacity:1" fill="#1a4ff4" d="M 273.5,303.5 C 273.5,276.833 273.5,250.167 273.5,223.5C 275.648,223.611 275.981,222.944 274.5,221.5C 274.808,220.692 275.308,220.025 276,219.5C 276.5,247.831 276.667,276.165 276.5,304.5C 275.209,304.737 274.209,304.404 273.5,303.5 Z"/></g>
<g><path style="opacity:1" fill="#2554b9" d="M 269.5,303.5 C 270.833,303.5 272.167,303.5 273.5,303.5C 274.209,304.404 275.209,304.737 276.5,304.5C 276.667,276.165 276.5,247.831 276,219.5C 275.308,220.025 274.808,220.692 274.5,221.5C 275.981,222.944 275.648,223.611 273.5,223.5C 273.768,221.901 273.434,220.568 272.5,219.5C 273.878,218.766 275.378,218.099 277,217.5C 277.667,247.167 277.667,276.833 277,306.5C 274.328,305.718 271.828,304.718 269.5,303.5 Z"/></g>
<g><path style="opacity:1" fill="#1e53e2" d="M 168.5,226.5 C 153.094,231.408 137.427,235.741 121.5,239.5C 121.286,237.856 121.62,236.356 122.5,235C 125.686,234.601 128.686,233.768 131.5,232.5C 133.246,232.971 134.913,233.638 136.5,234.5C 137.167,234.167 137.833,233.833 138.5,233.5C 137.5,232.833 136.5,232.167 135.5,231.5C 136.908,230.757 138.241,229.923 139.5,229C 136.765,229.198 134.099,229.031 131.5,228.5C 132.665,227.416 133.998,226.583 135.5,226C 140.517,225.41 145.517,225.577 150.5,226.5C 153.021,225.911 155.521,225.245 158,224.5C 161.281,225.965 164.781,226.632 168.5,226.5 Z"/></g>
<g><path style="opacity:1" fill="#1751ee" d="M 244.5,296.5 C 235.905,294.741 227.572,292.408 219.5,289.5C 215.971,287.645 212.304,285.811 208.5,284C 206.765,283.349 205.098,283.515 203.5,284.5C 202.289,283.726 202.289,282.893 203.5,282C 201.473,281.502 199.473,281.669 197.5,282.5C 195.128,281.637 195.128,280.471 197.5,279C 194.83,278.457 192.33,278.957 190,280.5C 188.234,279.767 186.401,279.433 184.5,279.5C 170.651,276.289 156.985,272.622 143.5,268.5C 140.85,264.988 137.184,263.655 132.5,264.5C 132.034,262.799 132.034,261.299 132.5,260C 136.545,260.472 140.545,260.639 144.5,260.5C 146.823,259.196 148.156,257.196 148.5,254.5C 169.563,247.898 190.897,241.898 212.5,236.5C 215.765,236.208 218.765,236.875 221.5,238.5C 224.306,236.936 227.306,236.27 230.5,236.5C 230.5,235.5 230.5,234.5 230.5,233.5C 232.924,233.192 235.257,233.526 237.5,234.5C 236.176,235.935 234.51,236.935 232.5,237.5C 237.12,239.163 241.787,239.497 246.5,238.5C 243.972,237.184 243.972,236.017 246.5,235C 249.482,234.502 252.482,234.335 255.5,234.5C 255.5,233.5 255.5,232.5 255.5,231.5C 252.603,231.681 249.77,231.348 247,230.5C 245.174,229.99 245.007,229.156 246.5,228C 249.076,227.394 251.41,227.894 253.5,229.5C 256.806,228.837 260.139,228.337 263.5,228C 265.037,226.89 265.703,225.39 265.5,223.5C 264.689,221.876 266.689,221.876 271.5,223.5C 271.5,245.5 271.5,267.5 271.5,289.5C 256.852,290.159 256.852,291.492 271.5,293.5C 271.5,294.833 271.5,296.167 271.5,297.5C 267.583,296.363 263.583,295.53 259.5,295C 259.002,293.842 258.169,293.009 257,292.5C 253.293,295.321 249.126,296.654 244.5,296.5 Z"/></g>
<g><path style="opacity:1" fill="#2256d0" d="M 148.5,254.5 C 148.156,257.196 146.823,259.196 144.5,260.5C 140.545,260.639 136.545,260.472 132.5,260C 132.034,261.299 132.034,262.799 132.5,264.5C 137.184,263.655 140.85,264.988 143.5,268.5C 135.807,266.493 128.14,264.326 120.5,262C 129.685,258.871 139.018,256.371 148.5,254.5 Z"/></g>
<g><path style="opacity:1" fill="#2355cb" d="M 219.5,289.5 C 207.517,286.924 195.85,283.591 184.5,279.5C 186.401,279.433 188.234,279.767 190,280.5C 192.33,278.957 194.83,278.457 197.5,279C 195.128,280.471 195.128,281.637 197.5,282.5C 199.473,281.669 201.473,281.502 203.5,282C 202.289,282.893 202.289,283.726 203.5,284.5C 205.098,283.515 206.765,283.349 208.5,284C 212.304,285.811 215.971,287.645 219.5,289.5 Z"/></g>
<g><path style="opacity:1" fill="#1f55d9" d="M 83.5,273.5 C 96.732,276.722 109.732,280.388 122.5,284.5C 113.389,285.01 104.389,285.843 95.5,287C 98.7302,284.708 102.397,283.208 106.5,282.5C 106.291,281.914 105.957,281.414 105.5,281C 99.6176,278.522 93.6176,277.355 87.5,277.5C 88.6888,278.429 90.0222,278.762 91.5,278.5C 91.5,279.5 91.5,280.5 91.5,281.5C 87.9049,281.528 84.9049,280.195 82.5,277.5C 83.5,276.833 84.5,276.167 85.5,275.5C 84.7573,274.818 84.0906,274.151 83.5,273.5 Z"/></g>
<g><path style="opacity:1" fill="#1d53e4" d="M 179.5,300.5 C 195.044,304.464 210.377,308.797 225.5,313.5C 222.734,313.67 220.067,314.336 217.5,315.5C 212.337,313.558 207.003,312.225 201.5,311.5C 198.589,312.915 195.589,314.082 192.5,315C 195.167,315.333 197.833,315.667 200.5,316C 196.679,316.858 193.012,318.025 189.5,319.5C 188.833,319.333 188.167,319.167 187.5,319C 191.03,318.328 192.363,316.162 191.5,312.5C 193.75,312.819 195.75,312.319 197.5,311C 193.275,309.524 188.942,308.19 184.5,307C 182.043,305.488 182.043,304.154 184.5,303C 181.514,303.128 178.514,303.128 175.5,303C 177.32,302.8 178.653,301.966 179.5,300.5 Z"/></g>
<g><path style="opacity:1" fill="#1f53e0" d="M 226.5,313.5 C 247.712,319.131 268.712,325.131 289.5,331.5C 285.149,330.494 280.816,330.494 276.5,331.5C 275.833,331.333 275.167,331.167 274.5,331C 277.23,329.768 277.063,328.935 274,328.5C 271.522,329.332 269.022,329.499 266.5,329C 268.815,327.632 268.815,326.799 266.5,326.5C 265.062,326.719 263.729,327.219 262.5,328C 263.833,329 263.833,330 262.5,331C 260.19,331.497 257.857,331.663 255.5,331.5C 255.5,330.5 255.5,329.5 255.5,328.5C 252.017,327.248 248.351,326.414 244.5,326C 243.833,324.333 243.167,322.667 242.5,321C 235.987,320.203 229.654,318.87 223.5,317C 224.448,316.517 225.448,316.351 226.5,316.5C 226.5,315.5 226.5,314.5 226.5,313.5 Z"/></g>
</svg>
